#!OML:ASF H:\Terrain\Patient Classification 1\Walking\liu\liu.ASF
:FULLY-SPECIFIED
:DEGREES
208
root 9.0547 16.8811 -2.58532 7.1842 -5.01353 -6.34811
lowerback -5.49192 2.5138 2.99619
upperback 0.826841 3.00237 3.73211
thorax 3.89034 1.51549 2.44682
lowerneck -19.657 -5.06555 -13.2619
upperneck 18.9213 -6.24677 13.6923
head 10.1531 -2.34453 6.2062
rclavicle -6.2965e-014 -3.10104e-014
rhumerus -20.9477 19.7835 -82.8033
rradius 40.1855
rwrist -18.384
rhand -31.1155 -27.2354
rfingers 7.12502
rthumb -4.39467 -57.1698
lclavicle -6.2965e-014 -3.10104e-014
lhumerus -48.7248 -3.79409 88.2629
lradius 22.6956
lwrist 0.36471
lhand -8.93103 -25.459
lfingers 7.12502
lthumb 17.0128 3.81596
rfemur 15.2088 2.93399 30.6868
rtibia 3.18055e-014
rfoot -3.80872 3.4616
rtoes -19.3544
lfemur -34.2015 -2.19987 -10.5458
ltibia 16.8898
lfoot -10.8562 17.3774
ltoes -9.71269
209
root 9.08043 16.855 -2.4024 7.28038 -5.1028 -6.2767
lowerback -5.93697 2.58011 2.95078
upperback 0.872688 3.06716 3.72567
thorax 4.18588 1.54669 2.49756
lowerneck -20.0582 -5.16695 -13.292
upperneck 19.2435 -6.33798 13.594
head 10.3546 -2.38551 6.17281
rclavicle 4.47266e-014 1.03368e-014
rhumerus -21.3486 19.8599 -82.8414
rradius 40.3797
rwrist -18.8514
rhand -30.664 -25.1828
rfingers 7.12502
rthumb -3.9587 -55.1258
lclavicle 4.47266e-014 1.03368e-014
lhumerus -48.4771 -3.29083 87.9755
lradius 22.4705
lwrist -0.297169
lhand -9.239 -25.8451
lfingers 7.12502
lthumb 16.7164 3.45514
rfemur 15.8106 2.94493 30.3824
rtibia -1.59028e-014
rfoot -3.1402 3.62362
rtoes -19.4139
lfemur -33.8896 -2.24605 -10.8667
ltibia 17.3315
lfoot -10.5317 16.9922
ltoes -8.75868
210
root 9.10037 16.8499 -2.229 7.31508 -5.16722 -6.25647
lowerback -6.13133 2.55824 2.84702
upperback 0.86062 3.03537 3.73357
thorax 4.27765 1.52825 2.57076
lowerneck -20.5139 -5.13892 -13.0572
upperneck 19.5765 -6.31304 13.4497
head 10.542 -2.35635 6.09493
rclavicle -5.03919e-014 -2.62396e-014
rhumerus -21.7103 20.326 -83.0979
rradius 40.4974
rwrist -19.7043
rhand -31.8037 -24.4068
rfingers 7.12502
rthumb -5.05918 -54.3264
lclavicle -5.03919e-014 -2.62396e-014
lhumerus -48.2922 -2.69335 87.6035
lradius 22.2363
lwrist -1.28084
lhand -9.34096 -25.962
lfingers 7.12502
lthumb 16.6182 3.34649
rfemur 16.3776 2.92057 30.1683
rtibia 4.77083e-014
rfoot -2.35989 3.63343
rtoes -20.3297
lfemur -33.6877 -2.46512 -10.9848
ltibia 17.9403
lfoot -9.36179 17.3977
ltoes -7.22767
211
root 9.12102 16.8715 -2.05808 7.21525 -5.36301 -6.1536
lowerback -5.93192 2.52443 2.63028
upperback 0.712671 3.02401 3.73793
thorax 3.99953 1.51795 2.67802
lowerneck -20.2395 -5.02509 -13.0775
upperneck 19.6352 -6.19781 13.4995
head 10.4957 -2.30903 6.13813
rclavicle -6.95746e-015 1.74931e-014
rhumerus -22.1488 20.3482 -83.3027
rradius 40.2762
rwrist -19.2568
rhand -31.3577 -24.1957
rfingers 7.12502
rthumb -4.62859 -54.1251
lclavicle -6.95746e-015 1.74931e-014
lhumerus -48.5845 -2.43151 87.5508
lradius 22.3542
lwrist -1.84791
lhand -8.74612 -26.3216
lfingers 7.12502
lthumb 17.1908 2.93797
rfemur 17.0018 2.98909 29.8825
rtibia 2.22639e-014
rfoot -1.53871 3.61629
rtoes -20.9832
lfemur -33.5315 -2.57309 -11.1365
ltibia 18.6315
lfoot -7.59549 18.1718
ltoes -6.84123
212
root 9.14969 16.8887 -1.87472 7.14143 -5.53214 -6.09079
lowerback -5.86353 2.45243 2.48943
upperback 0.592904 2.94486 3.79711
thorax 3.82812 1.47529 2.80241
lowerneck -20.1663 -4.94907 -13.1991
upperneck 19.8633 -6.07953 13.4869
head 10.5488 -2.26851 6.18276
rclavicle -3.47376e-014 -3.02153e-014
rhumerus -22.688 20.4765 -83.5268
rradius 40.3082
rwrist -19.0189
rhand -30.3163 -25.7246
rfingers 7.12502
rthumb -3.62291 -55.6735
lclavicle -3.47376e-014 -3.02153e-014
lhumerus -48.7777 -1.94045 87.473
lradius 22.3934
lwrist -2.14146
lhand -7.84375 -27.8107
lfingers 7.12502
lthumb 18.0592 1.37086
rfemur 17.6339 3.0487 29.6109
rtibia -3.18055e-015
rfoot -0.674133 3.78103
rtoes -23.1087
lfemur -33.4369 -2.70443 -11.2455
ltibia 19.2373
lfoot -5.65012 19.0092
ltoes -8.57516
213
root 9.17472 16.9025 -1.68372 7.06676 -5.61818 -6.06851
lowerback -6.02288 2.42656 2.48457
upperback 0.589078 2.90381 3.76542
thorax 3.91643 1.4548 2.77672
lowerneck -20.6619 -4.97198 -12.9601
upperneck 20.2276 -6.10873 13.2735
head 10.763 -2.27076 6.07083
rclavicle 2.48481e-014 -1.98785e-015
rhumerus -23.3288 20.6714 -83.9717
rradius 40.7728
rwrist -19.6553
rhand -31.1146 -30.0101
rfingers 7.12502
rthumb -4.39382 -59.9445
lclavicle 2.48481e-014 -1.98785e-015
lhumerus -48.5649 -1.71408 87.3645
lradius 22.0729
lwrist -2.13047
lhand -8.18083 -28.0485
lfingers 7.12502
lthumb 17.7348 1.16274
rfemur 18.1972 3.03721 29.3657
rtibia -5.08889e-014
rfoot 0.345446 3.66425
rtoes -23.6593
lfemur -33.1082 -2.40131 -11.5535
ltibia 19.715
lfoot -4.11691 19.2575
ltoes -9.33553
214
root 9.19006 16.9091 -1.49972 6.93032 -5.61209 -5.73375
lowerback -6.10984 2.43164 2.14274
upperback 0.601481 2.93848 3.59325
thorax 3.9685 1.46664 2.79688
lowerneck -20.5573 -5.01484 -12.9363
upperneck 20.0728 -6.22067 13.4476
head 10.7108 -2.3038 6.1089
rclavicle 1.87852e-014 1.31198e-014
rhumerus -23.7579 20.4277 -84.3713
rradius 40.9993
rwrist -19.9803
rhand -32.188 -35.147
rfingers 7.12502
rthumb -5.43022 -65.0574
lclavicle 1.87852e-014 1.31198e-014
lhumerus -48.2569 -1.86782 87.3066
lradius 21.811
lwrist -1.98109
lhand -10.0732 -25.7366
lfingers 7.12502
lthumb 15.9131 3.62961
rfemur 18.7517 2.8917 28.8419
rtibia -5.08889e-014
rfoot 1.48314 3.10469
rtoes -22.0007
lfemur -32.5531 -1.50269 -12.4712
ltibia 20.078
lfoot -2.85787 18.6278
ltoes -8.60321
215
root 9.20663 16.9159 -1.32392 6.86596 -5.57949 -5.03809
lowerback -6.13864 2.38069 1.34794
upperback 0.5216 2.94023 3.40389
thorax 3.87059 1.45389 3.04308
lowerneck -19.8255 -4.89096 -13.3582
upperneck 19.4897 -6.1067 14.0966
head 10.3837 -2.23788 6.42378
rclavicle -1.78906e-014 -1.43125e-014
rhumerus -24.2952 19.8968 -84.4884
rradius 40.3591
rwrist -19.5851
rhand -30.8393 -28.0592
rfingers 7.12502
rthumb -4.12794 -57.999
lclavicle -1.78906e-014 -1.43125e-014
lhumerus -48.0883 -1.94612 87.2958
lradius 21.828
lwrist -2.0721
lhand -8.33596 -27.1635
lfingers 7.12502
lthumb 17.5856 2.06121
rfemur 19.2495 2.70052 27.9468
rtibia -2.54444e-014
rfoot 2.69642 2.44855
rtoes -20.0657
lfemur -32.0005 -0.167493 -13.9721
ltibia 20.2278
lfoot -0.912452 17.3427
ltoes -10.7145
216
root 9.23256 16.9291 -1.13752 6.71026 -5.75067 -4.18643
lowerback -6.20859 2.37094 0.574989
upperback 0.486175 2.99699 3.09113
thorax 3.84715 1.46995 3.15845
lowerneck -20.1855 -4.89894 -13.1759
upperneck 19.8916 -6.13754 13.9594
head 10.5898 -2.2403 6.35299
rclavicle -1.75924e-014 -3.29983e-014
rhumerus -25.0948 19.3957 -84.7543
rradius 40.2831
rwrist -19.1729
rhand -29.9022 -24.9993
rfingers 7.12502
rthumb -3.22297 -54.9547
lclavicle -1.75924e-014 -3.29983e-014
lhumerus -47.8657 -1.78908 86.9868
lradius 21.7212
lwrist -2.93069
lhand -7.33286 -27.6639
lfingers 7.12502
lthumb 18.5507 1.47153
rfemur 16.2854 2.60252 26.8139
rtibia 7.24765
rfoot 0.55187 3.33867
rtoes -20.1655
lfemur -31.2435 1.36312 -15.6593
ltibia 20.2292
lfoot 0.37658 16.0385
ltoes -12.3713
217
root 9.25886 16.9454 -0.944586 6.41212 -5.87805 -3.44066
lowerback -6.28396 2.345 -0.0537265
upperback 0.549517 3.01923 2.79039
thorax 3.93753 1.46972 3.20675
lowerneck -19.7859 -4.75935 -13.333
upperneck 19.4689 -6.02659 14.4794
head 10.3698 -2.15887 6.57841
rclavicle -1.85615e-014 9.93923e-015
rhumerus -25.5703 18.9306 -85.0975
rradius 39.9723
rwrist -18.9616
rhand -29.9138 -25.8153
rfingers 7.12502
rthumb -3.23418 -55.7705
lclavicle -1.85615e-014 9.93923e-015
lhumerus -47.4968 -1.50034 86.5849
lradius 21.3764
lwrist -3.79002
lhand -7.41422 -28.3632
lfingers 7.12502
lthumb 18.4724 0.779669
rfemur 15.0984 2.49783 25.7865
rtibia 11.1585
rfoot 0.276084 3.56103
rtoes -22.3257
lfemur -30.3261 2.36214 -16.9461
ltibia 20.1552
lfoot 0.26376 15.1984
ltoes -10.2041
218
root 9.27357 16.962 -0.786736 6.5148 -5.54656 -3.18406
lowerback -6.38972 2.18122 -0.427753
upperback 0.467432 2.83291 2.71482
thorax 3.90746 1.37106 3.32356
lowerneck -20.3277 -4.86036 -12.6889
upperneck 20.2736 -6.14805 13.5181
head 10.7228 -2.25079 6.11291
rclavicle 3.35449e-014 -1.63003e-014
rhumerus -25.9474 18.7082 -85.4309
rradius 39.6486
rwrist -19.0989
rhand -30.2514 -28.8209
rfingers 7.12502
rthumb -3.56021 -58.7709
lclavicle 3.35449e-014 -1.63003e-014
lhumerus -47.0273 -1.56653 86.684
lradius 20.9483
lwrist -3.10113
lhand -8.48472 -29.0612
lfingers 7.12502
lthumb 17.4424 0.176206
rfemur 13.5828 2.25558 25.4763
rtibia 14.5157
rfoot 0.84033 3.20517
rtoes -22.7044
lfemur -30.137 3.01949 -17.5807
ltibia 20.146
lfoot 0.302244 13.7719
ltoes -7.6367
219
root 9.29733 16.9737 -0.605138 6.47671 -5.18154 -2.20615
lowerback -6.6351 1.98508 -1.33937
upperback 0.412846 2.65609 2.38289
thorax 3.97356 1.26695 3.48449
lowerneck -20.2559 -4.89215 -12.6041
upperneck 20.2515 -6.2338 13.5425
head 10.7127 -2.28303 6.09254
rclavicle -5.73991e-015 -1.19271e-015
rhumerus -26.6735 18.2113 -85.7794
rradius 39.5517
rwrist -19.0227
rhand -30.1268 -29.4457
rfingers 7.12502
rthumb -3.43989 -59.3977
lclavicle -5.73991e-015 -1.19271e-015
lhumerus -46.3726 -0.812713 85.7959
lradius 20.5189
lwrist -5.41888
lhand -7.70381 -27.794
lfingers 7.12502
lthumb 18.1938 1.37512
rfemur 12.3488 1.34836 24.0985
rtibia 17.7647
rfoot 1.76112 3.42203
rtoes -21.5619
lfemur -29.7392 4.1511 -19.3344
ltibia 20.2228
lfoot 0.280613 11.2884
ltoes -7.20094
220
root 9.31636 16.9857 -0.443005 6.50941 -4.91066 -1.8091
lowerback -6.52079 1.8567 -1.70285
upperback 0.161224 2.52119 2.22792
thorax 3.64859 1.20261 3.50247
lowerneck -20.2091 -4.96842 -12.4231
upperneck 20.3605 -6.3764 13.3812
head 10.7527 -2.35344 5.98025
rclavicle -1.98785e-015 -6.75868e-015
rhumerus -27.6411 17.5402 -86.0754
rradius 39.3691
rwrist -18.5382
rhand -29.7067 -26.9835
rfingers 7.12502
rthumb -3.03423 -56.9416
lclavicle -1.98785e-015 -6.75868e-015
lhumerus -46.0967 -0.455123 85.3831
lradius 20.297
lwrist -6.18728
lhand -7.20009 -24.6164
lfingers 7.12502
lthumb 18.6784 4.50687
rfemur 10.9967 0.694558 23.4862
rtibia 20.8591
rfoot 3.10585 3.08921
rtoes -21.6627
lfemur -29.463 5.09347 -20.2634
ltibia 20.4317
lfoot -0.249282 9.4752
ltoes -6.77949
221
root 9.34039 16.9962 -0.284458 6.49314 -4.76236 -1.333
lowerback -6.33036 1.72238 -2.16411
upperback -0.0626266 2.38083 2.09993
thorax 3.30649 1.13498 3.60246
lowerneck -20.0504 -4.94679 -12.2982
upperneck 20.4979 -6.35692 13.1446
head 10.7552 -2.36648 5.8761
rclavicle 1.44616e-014 8.34896e-015
rhumerus -28.5664 17.1729 -86.3374
rradius 39.183
rwrist -18.2005
rhand -29.6206 -25.7979
rfingers 7.12502
rthumb -2.95103 -55.7573
lclavicle 1.44616e-014 8.34896e-015
lhumerus -45.859 -0.319862 85.3582
lradius 20.166
lwrist -6.15229
lhand -7.92937 -27.1053
lfingers 7.12502
lthumb 17.9768 2.08392
rfemur 9.68336 0.13232 22.7607
rtibia 23.7724
rfoot 4.76139 2.38328
rtoes -21.2081
lfemur -29.1667 5.31512 -20.987
ltibia 20.8182
lfoot -1.0158 8.88175
ltoes -5.63582
222
root 9.37421 17.0055 -0.114745 6.46328 -4.67204 -0.819537
lowerback -6.40213 1.5951 -2.52027
upperback -0.114139 2.24464 1.92228
thorax 3.29743 1.06355 3.60852
lowerneck -19.8879 -4.86993 -12.6058
upperneck 20.4808 -6.27338 13.5562
head 10.7323 -2.31253 6.10082
rclavicle -1.16538e-014 -1.59028e-015
rhumerus -29.3182 16.9892 -86.657
rradius 39.084
rwrist -18.2022
rhand -29.9974 -26.3141
rfingers 7.12502
rthumb -3.31499 -56.2681
lclavicle -1.16538e-014 -1.59028e-015
lhumerus -45.2665 -0.176185 85.2351
lradius 19.9114
lwrist -6.29612
lhand -8.66068 -27.1622
lfingers 7.12502
lthumb 17.273 2.09019
rfemur 8.31989 -0.604093 21.8606
rtibia 26.7543
rfoot 6.45018 1.94888
rtoes -20.2107
lfemur -28.7454 5.34136 -21.7363
ltibia 21.1746
lfoot -1.70449 8.60187
ltoes -6.03886
